<svg xmlns="http://www.w3.org/2000/svg" width="270" height="60" viewBox="0 0 270 60" fill="none"><path d="M102.663 14.0341L101.507 20.4434C101.005 23.2095 98.9948 25.7507 96.2721 27.0776C96.2196 27.1 96.2046 27.145 96.2046 27.1525L99.4748 32.8946C99.7298 33.3444 99.7298 33.8767 99.4748 34.3114C99.2198 34.7462 98.7548 35.0086 98.2372 35.0086C95.402 35.0086 94.442 35.0836 92.0118 35.0836C90.4967 35.0836 89.8367 34.9411 89.4541 34.1765L86.4614 28.277C86.3789 28.112 86.2064 28.0146 85.9889 28.0146H79.5535C79.5085 28.0221 79.456 28.0671 79.4485 28.112L78.5109 33.3144C78.3309 34.3189 77.3858 35.106 76.3657 35.106H71.0479C69.9978 35.106 69.2778 34.2515 69.4653 33.217L73.9956 8.14951C74.1756 7.16001 75.1357 6.35791 76.1407 6.35791H96.2421C100.555 6.35791 103.428 9.80618 102.663 14.0341ZM93.2194 14.2665C93.0544 14.0641 92.7994 13.9591 92.4993 13.9591H82.0961C82.0511 13.9591 81.9986 14.0041 81.9911 14.0491L80.8361 20.4209V20.4284L91.2318 20.4134C91.8843 20.4134 92.5143 19.8886 92.6343 19.244L93.3994 15.0311C93.4519 14.7387 93.3919 14.4689 93.2194 14.2665Z" fill="#338A83"></path><path d="M116.876 8.2673L112.346 33.3123C112.166 34.3168 111.221 35.1039 110.2 35.1039H104.883C104.373 35.1039 103.93 34.909 103.63 34.5492C103.33 34.1893 103.218 33.7171 103.308 33.2223L107.838 8.17735C108.018 7.17285 108.963 6.38574 109.983 6.38574H115.308C116.358 6.38574 117.071 7.24031 116.883 8.2748L116.876 8.2673Z" fill="#338A83"></path><path d="M151.334 6.90979C151.537 7.24712 151.537 7.68191 151.334 8.07171L149.257 11.9098C146.251 17.467 143.139 23.2566 139.918 29.2786L137.443 33.9113C137.061 34.6309 136.281 35.1107 135.501 35.1107H125.907C125.105 35.1107 124.452 34.5785 124.317 33.8213L123.417 28.6114C122.407 22.7744 121.445 17.3071 120.53 12.2096L119.772 7.98925C119.63 7.20214 120.35 6.41504 121.167 6.41504H127.633C128.45 6.41504 129.088 6.92478 129.215 7.6894L132.29 25.1931C132.305 25.2756 132.388 25.2981 132.41 25.2981C132.448 25.2981 132.5 25.2981 132.53 25.2456L142.011 7.60694C142.394 6.8948 143.174 6.41504 143.946 6.41504H150.412C150.809 6.41504 151.147 6.59495 151.334 6.90979Z" fill="#338A83"></path><path d="M181.126 7.59172L180.166 12.9066C180.046 13.5587 179.438 14.076 178.771 14.076H162.262C162.217 14.076 162.165 14.121 162.157 14.1659L161.632 17.0745H174.901C175.238 17.067 175.538 17.2019 175.741 17.4418C175.943 17.6817 176.018 17.9965 175.958 18.3338L175.073 23.2139C174.953 23.8661 174.338 24.3758 173.678 24.3758H160.402C160.357 24.3758 160.305 24.4208 160.297 24.4658L159.81 27.1794H176.311C176.648 27.1719 176.948 27.3069 177.151 27.5467C177.353 27.7866 177.428 28.1015 177.368 28.4388L176.378 33.9485C176.258 34.6007 175.643 35.1105 174.983 35.1105H151.237C150.726 35.1105 150.276 34.9081 149.976 34.5557C149.676 34.1959 149.556 33.7237 149.646 33.2214L154.184 8.13145C154.364 7.14194 155.324 6.33984 156.337 6.33984H180.083C180.789 6.33984 181.261 6.91706 181.141 7.59921L181.126 7.59172Z" fill="#338A83"></path><path d="M213.789 14.0341L212.634 20.4434C212.132 23.2095 210.122 25.7507 207.399 27.0776C207.347 27.1 207.332 27.145 207.332 27.1525L210.602 32.8946C210.857 33.3444 210.857 33.8767 210.602 34.3114C210.347 34.7462 209.882 35.0086 209.364 35.0086C206.529 35.0086 205.569 35.0836 203.139 35.0836C201.624 35.0836 200.964 34.9411 200.581 34.1765L197.588 28.277C197.506 28.112 197.333 28.0146 197.116 28.0146H190.68C190.635 28.0221 190.583 28.0671 190.575 28.112L189.638 33.3144C189.45 34.3189 188.513 35.106 187.493 35.106H182.175C181.125 35.106 180.405 34.2515 180.592 33.217L185.123 8.14951C185.303 7.16001 186.263 6.35791 187.268 6.35791H207.369C211.682 6.35791 214.555 9.80618 213.789 14.0341ZM204.346 14.2665C204.181 14.0641 203.926 13.9591 203.626 13.9591H193.223C193.178 13.9591 193.126 14.0041 193.118 14.0491L191.963 20.4209V20.4284L202.359 20.4134C203.011 20.4134 203.641 19.8886 203.761 19.244L204.526 15.0311C204.579 14.7387 204.519 14.4689 204.346 14.2665Z" fill="#338A83"></path><path d="M268.787 8.43564L249.218 29.7025C248.67 30.3022 248.528 31.1043 248.858 31.704L261.339 54.0428C261.969 55.1673 260.866 56.7415 259.448 56.7415H245.332C244.41 56.7415 243.615 56.3067 243.21 55.5721L236.992 44.4327C236.744 43.9904 236.152 43.9079 235.814 44.2677L225.419 55.5646C224.751 56.2992 223.799 56.734 222.876 56.734H208.76C207.342 56.734 206.81 55.1598 207.845 54.0353L228.396 31.6965C228.944 31.0968 229.086 30.2947 228.756 29.695L216.876 8.42814C216.246 7.3112 217.348 5.72949 218.766 5.72949H232.882C233.812 5.72949 234.599 6.16428 235.012 6.89891L240.637 16.9664C240.885 17.4012 241.485 17.4911 241.815 17.1313L251.228 6.9064C251.903 6.17177 252.848 5.73699 253.778 5.73699H267.894C269.304 5.73699 269.844 7.3187 268.802 8.43564H268.787Z" fill="#FCD018"></path><path d="M53.7944 0H13.6817C11.8141 0 10.0364 1.48426 9.70642 3.32084L0.0532576 56.6792C-0.276765 58.5157 0.960817 60 2.82844 60H42.9412C51.7093 60 60.0873 53.006 61.6474 44.3928L66.8453 15.6072C68.4204 6.97901 62.57 0 53.7944 0ZM22.8773 42.9011L21.5497 49.3478C21.3322 50.4048 20.3871 51.1694 19.3146 51.1694H11.9341C11.244 51.1694 10.6065 50.8621 10.1639 50.3223C9.72892 49.7901 9.5564 49.093 9.69891 48.4108L11.0265 41.9715C11.2515 40.9145 12.1891 40.1499 13.2692 40.1499H20.6347C21.3247 40.1499 21.9773 40.4573 22.4048 40.997C22.8473 41.5292 23.0123 42.2264 22.8698 42.8936L22.8773 42.9011ZM32.763 51.1769H25.39C24.6999 51.1769 24.0474 50.8696 23.6199 50.3298C23.1773 49.7976 23.0123 49.1005 23.1548 48.4183L26.1925 33.7256C26.4101 32.6687 27.3476 31.9041 28.4277 31.9041H35.8007C36.4907 31.9041 37.1433 32.2114 37.5708 32.7511C38.0133 33.2834 38.1859 33.9805 38.0358 34.6477L34.9981 49.3553C34.7806 50.4123 33.8431 51.1769 32.763 51.1769ZM53.2094 26.4018L48.4615 49.3553C48.244 50.4123 47.3065 51.1769 46.2264 51.1769H38.8534C38.1634 51.1769 37.5108 50.8696 37.0758 50.3298C36.6407 49.7976 36.4682 49.1005 36.6107 48.4183L41.3586 25.4648C41.5761 24.4078 42.5136 23.6432 43.5937 23.6432H50.9667C51.6568 23.6432 52.3093 23.9505 52.7443 24.4903C53.1794 25.0225 53.3519 25.7196 53.2094 26.4018Z" fill="#338A83"></path><path d="M21.5227 42.6236L20.1951 49.0629C20.1051 49.4826 19.7375 49.79 19.3175 49.79H11.937C11.367 49.79 10.9319 49.2653 11.0595 48.703L12.387 42.2563C12.4771 41.844 12.8446 41.5366 13.2796 41.5366H20.6451C21.2151 41.5366 21.6502 42.0614 21.5227 42.6236Z" fill="#FCD018"></path><path d="M51.8543 26.1167L47.1065 49.0703C47.0165 49.4901 46.6489 49.7974 46.2289 49.7974H38.8559C38.2784 49.7974 37.8509 49.2727 37.9634 48.7105L42.7112 25.7569C42.8012 25.3371 43.1612 25.0298 43.5887 25.0298H50.9617C51.5393 25.0298 51.9668 25.5545 51.8543 26.1167Z" fill="#FCD018"></path><path d="M36.7 34.3658L33.6623 49.0584C33.5723 49.4782 33.2047 49.7856 32.7697 49.7856H25.3967C24.8267 49.7856 24.3916 49.2608 24.5041 48.6986L27.5419 34.0059C27.6319 33.5862 27.9994 33.2788 28.4344 33.2788H35.8074C36.3775 33.2788 36.8125 33.8035 36.7 34.3658Z" fill="#FCD018"></path><path d="M65.1797 54.6772L67.8874 40.8991H70.4376L74.2853 50.6592L72.9352 50.6367L80.4357 40.8916H83.1209L80.4357 54.6697H77.4955L79.2957 45.4343H79.8957L73.9253 53.2079H72.5302L69.3425 45.4118L69.92 45.4718L68.1199 54.6622H65.1797V54.6772Z" fill="#FCD018"></path><path d="M96.4621 54.9113C95.097 54.9113 93.9194 54.6565 92.9369 54.1542C91.9543 53.652 91.1967 52.9473 90.6642 52.0478C90.1392 51.1482 89.8691 50.1062 89.8691 48.9293C89.8691 47.7524 90.0717 46.658 90.4692 45.6535C90.8667 44.649 91.4367 43.7794 92.1793 43.0373C92.9218 42.2951 93.8069 41.7179 94.827 41.2981C95.8545 40.8784 96.9871 40.6685 98.2397 40.6685C99.6048 40.6685 100.782 40.9233 101.765 41.4256C102.755 41.9278 103.505 42.6325 104.038 43.532C104.563 44.4316 104.833 45.4736 104.833 46.6505C104.833 47.8274 104.63 48.9218 104.233 49.9263C103.835 50.9308 103.265 51.8004 102.523 52.5425C101.78 53.2847 100.895 53.8619 99.8748 54.2817C98.8473 54.7014 97.7147 54.9113 96.4621 54.9113ZM96.7321 52.1977C97.4897 52.1977 98.1797 52.0553 98.7948 51.7779C99.4098 51.493 99.9273 51.1032 100.355 50.6085C100.782 50.1137 101.105 49.5365 101.33 48.8844C101.555 48.2322 101.667 47.55 101.667 46.8304C101.667 46.1482 101.525 45.5485 101.24 45.0313C100.955 44.514 100.542 44.1092 99.9948 43.8169C99.4473 43.532 98.7723 43.3821 97.9772 43.3821C97.1821 43.3821 96.5371 43.5245 95.9296 43.8019C95.322 44.0867 94.8045 44.4766 94.3694 44.9713C93.9344 45.4736 93.6119 46.0433 93.3869 46.6954C93.1619 47.3476 93.0494 48.0298 93.0494 48.7494C93.0494 49.4316 93.1919 50.0313 93.4844 50.5485C93.7769 51.0658 94.1969 51.4706 94.7445 51.7629C95.292 52.0553 95.9596 52.1977 96.7471 52.1977H96.7321Z" fill="#FCD018"></path><path d="M111.564 54.6809L114.272 40.9028H120.805C122.275 40.9028 123.4 41.1727 124.18 41.7124C124.96 42.2522 125.35 43.0318 125.35 44.0513C125.35 44.9208 125.125 45.648 124.683 46.2402C124.24 46.8324 123.648 47.2746 122.913 47.582C122.178 47.8818 121.383 48.0318 120.513 48.0318L121.015 47.2447C122.148 47.2447 123.055 47.507 123.73 48.0393C124.405 48.5715 124.743 49.3361 124.743 50.3331C124.743 51.3301 124.48 52.1172 123.963 52.7619C123.438 53.4141 122.725 53.8938 121.81 54.2087C120.895 54.5235 119.845 54.6809 118.66 54.6809H111.564ZM115.165 52.2746H118.855C119.718 52.2746 120.4 52.1097 120.895 51.7724C121.39 51.4351 121.638 50.9403 121.638 50.2881C121.638 49.7784 121.45 49.4111 121.09 49.1937C120.723 48.9763 120.228 48.8713 119.613 48.8713H115.472L115.937 46.5475H119.455C119.995 46.5475 120.46 46.4725 120.858 46.3301C121.248 46.1877 121.548 45.9628 121.758 45.6704C121.968 45.3781 122.065 45.0183 122.065 44.5985C122.065 44.1412 121.893 43.8114 121.54 43.6015C121.188 43.3916 120.7 43.2941 120.07 43.2941H116.897L115.157 52.2672L115.165 52.2746Z" fill="#FCD018"></path><path d="M132.164 54.6809L134.872 40.9028H138.022L135.314 54.6809H132.164Z" fill="#FCD018"></path><path d="M144.293 54.6809L147.001 40.9028H150.151L147.946 52.0872H154.734L154.209 54.6884H144.293V54.6809Z" fill="#FCD018"></path><path d="M165.397 52.1135H172.784L172.259 54.6697H161.781L164.489 40.8916H174.72L174.195 43.4478H167.099L165.397 52.106V52.1135ZM166.282 46.4463H172.8L172.319 48.9276H165.802L166.282 46.4463Z" fill="#FCD018"></path></svg>